<?xml version="1.0" encoding="UTF-8" standalone="no"?>
<!DOCTYPE svg PUBLIC "-//W3C//DTD SVG 1.1//EN"
 "http://www.w3.org/Graphics/SVG/1.1/DTD/svg11.dtd">
<!-- Generated by graphviz version 2.38.0 (20140413.2041)
 -->
<!-- Title: %3 Pages: 1 -->
<svg width="508pt" height="393pt"
 viewBox="0.00 0.00 507.55 393.00" xmlns="http://www.w3.org/2000/svg" xmlns:xlink="http://www.w3.org/1999/xlink">
<g id="graph0" class="graph" transform="scale(1 1) rotate(0) translate(4 389)">
<title>%3</title>
<polygon fill="white" stroke="none" points="-4,4 -4,-389 503.547,-389 503.547,4 -4,4"/>
<!-- [Name] -->
<g id="node1" class="node"><title>[Name]</title>
<polygon fill="lightblue" stroke="#599fb6" points="40.5,-174.5 40.5,-210.5 95.5,-210.5 95.5,-174.5 40.5,-174.5"/>
<text text-anchor="middle" x="68" y="-188.8" font-family="Ubuntu,Monospace" font-size="14.00">Name</text>
</g>
<!-- x1 -->
<g id="node6" class="node"><title>x1</title>
<ellipse fill="#ffd890" stroke="orange" cx="27" cy="-105" rx="27" ry="18"/>
<text text-anchor="middle" x="27" y="-101.3" font-family="Ubuntu,Monospace" font-size="14.00">&#39;x&#39;</text>
</g>
<!-- [Name]&#45;&gt;x1 -->
<g id="edge3" class="edge"><title>[Name]:name&#45;&gt;x1</title>
<path fill="none" stroke="#c68100" d="M59.305,-174.156C53.4413,-161.785 45.6229,-145.29 39.1464,-131.626"/>
<polygon fill="#c68100" stroke="#c68100" points="42.1607,-129.814 34.7148,-122.276 35.8352,-132.812 42.1607,-129.814"/>
<text text-anchor="middle" x="55.5" y="-144.8" font-family="Times,serif" font-size="14.00">id</text>
</g>
<!-- Param -->
<g id="node11" class="node"><title>Param</title>
<ellipse fill="lightblue" stroke="#599fb6" cx="110" cy="-105" rx="37.8943" ry="18"/>
<text text-anchor="middle" x="110" y="-101.3" font-family="Ubuntu,Monospace" font-size="14.00">Param</text>
</g>
<!-- [Name]&#45;&gt;Param -->
<g id="edge4" class="edge"><title>[Name]:name&#45;&gt;Param</title>
<path fill="none" stroke="#599fb6" d="M76.9071,-174.156C82.8363,-161.944 90.7166,-145.715 97.2999,-132.156"/>
<polygon fill="#599fb6" stroke="#599fb6" points="100.598,-133.376 101.818,-122.851 94.3015,-130.318 100.598,-133.376"/>
<text text-anchor="middle" x="113" y="-144.8" font-family="Times,serif" font-size="14.00">context</text>
</g>
<!-- [] -->
<g id="node2" class="node"><title>[]</title>
<polygon fill="white" stroke="#599fb6" points="285,-174.5 285,-210.5 339,-210.5 339,-174.5 285,-174.5"/>
<text text-anchor="middle" x="312" y="-188.8" font-family="Ubuntu,Monospace" font-size="14.00"> </text>
</g>
<!-- Name2 -->
<g id="node3" class="node"><title>Name2</title>
<ellipse fill="lightblue" stroke="#599fb6" cx="311" cy="-105" rx="35.9954" ry="18"/>
<text text-anchor="middle" x="311" y="-101.3" font-family="Ubuntu,Monospace" font-size="14.00">Name</text>
</g>
<!-- x2 -->
<g id="node7" class="node"><title>x2</title>
<ellipse fill="#ffd890" stroke="orange" cx="273" cy="-18" rx="27" ry="18"/>
<text text-anchor="middle" x="273" y="-14.3" font-family="Ubuntu,Monospace" font-size="14.00">&#39;x&#39;</text>
</g>
<!-- Name2&#45;&gt;x2 -->
<g id="edge11" class="edge"><title>Name2&#45;&gt;x2</title>
<path fill="none" stroke="#c68100" d="M303.492,-87.2067C298.097,-75.1377 290.721,-58.6384 284.575,-44.8906"/>
<polygon fill="#c68100" stroke="#c68100" points="287.639,-43.1699 280.363,-35.4692 281.249,-46.0269 287.639,-43.1699"/>
<text text-anchor="middle" x="300.5" y="-57.8" font-family="Times,serif" font-size="14.00">id</text>
</g>
<!-- Load -->
<g id="node14" class="node"><title>Load</title>
<ellipse fill="lightblue" stroke="#599fb6" cx="349" cy="-18" rx="31.3957" ry="18"/>
<text text-anchor="middle" x="349" y="-14.3" font-family="Ubuntu,Monospace" font-size="14.00">Load</text>
</g>
<!-- Name2&#45;&gt;Load -->
<g id="edge12" class="edge"><title>Name2&#45;&gt;Load</title>
<path fill="none" stroke="#599fb6" d="M318.508,-87.2067C323.868,-75.2156 331.184,-58.8511 337.306,-45.1571"/>
<polygon fill="#599fb6" stroke="#599fb6" points="340.622,-46.3161 341.508,-35.7584 334.231,-43.4591 340.622,-46.3161"/>
<text text-anchor="middle" x="353" y="-57.8" font-family="Times,serif" font-size="14.00">context</text>
</g>
<!-- None1 -->
<g id="node4" class="node"><title>None1</title>
<ellipse fill="#ffd890" stroke="orange" cx="147" cy="-192.5" rx="33.5952" ry="18"/>
<text text-anchor="middle" x="147" y="-188.8" font-family="Ubuntu,Monospace" font-size="14.00">None</text>
</g>
<!-- None2 -->
<g id="node5" class="node"><title>None2</title>
<ellipse fill="#ffd890" stroke="orange" cx="233" cy="-192.5" rx="33.5952" ry="18"/>
<text text-anchor="middle" x="233" y="-188.8" font-family="Ubuntu,Monospace" font-size="14.00">None</text>
</g>
<!-- 1 -->
<g id="node8" class="node"><title>1</title>
<ellipse fill="#ffd890" stroke="orange" cx="469" cy="-18" rx="27" ry="18"/>
<text text-anchor="middle" x="469" y="-14.3" font-family="Ubuntu,Monospace" font-size="14.00">1</text>
</g>
<!-- Lambda -->
<g id="node9" class="node"><title>Lambda</title>
<ellipse fill="lightblue" stroke="#599fb6" cx="310" cy="-367" rx="44.393" ry="18"/>
<text text-anchor="middle" x="310" y="-363.3" font-family="Ubuntu,Monospace" font-size="14.00">Lambda</text>
</g>
<!-- arguments -->
<g id="node10" class="node"><title>arguments</title>
<ellipse fill="lightblue" stroke="#599fb6" cx="233" cy="-280" rx="55.7903" ry="18"/>
<text text-anchor="middle" x="233" y="-276.3" font-family="Ubuntu,Monospace" font-size="14.00">arguments</text>
</g>
<!-- Lambda&#45;&gt;arguments -->
<g id="edge1" class="edge"><title>Lambda&#45;&gt;arguments</title>
<path fill="none" stroke="#599fb6" d="M295.154,-349.611C283.723,-336.993 267.75,-319.361 254.86,-305.131"/>
<polygon fill="#599fb6" stroke="#599fb6" points="257.371,-302.69 248.064,-297.629 252.183,-307.39 257.371,-302.69"/>
<text text-anchor="middle" x="288.5" y="-319.8" font-family="Times,serif" font-size="14.00">args</text>
</g>
<!-- Return -->
<g id="node12" class="node"><title>Return</title>
<ellipse fill="lightblue" stroke="#599fb6" cx="366" cy="-280" rx="40.0939" ry="18"/>
<text text-anchor="middle" x="366" y="-276.3" font-family="Ubuntu,Monospace" font-size="14.00">Return</text>
</g>
<!-- Lambda&#45;&gt;Return -->
<g id="edge8" class="edge"><title>Lambda&#45;&gt;Return</title>
<path fill="none" stroke="#599fb6" d="M321.064,-349.207C329.17,-336.903 340.309,-319.996 349.468,-306.093"/>
<polygon fill="#599fb6" stroke="#599fb6" points="352.571,-307.745 355.15,-297.469 346.725,-303.894 352.571,-307.745"/>
<text text-anchor="middle" x="356" y="-319.8" font-family="Times,serif" font-size="14.00">body</text>
</g>
<!-- arguments&#45;&gt;[Name] -->
<g id="edge2" class="edge"><title>arguments&#45;&gt;[Name]</title>
<path fill="none" stroke="#599fb6" d="M199.486,-265.43C184.999,-259.285 167.97,-251.685 153,-244 136.434,-235.496 118.644,-225.131 103.642,-216.009"/>
<polygon fill="#599fb6" stroke="#599fb6" points="105.051,-212.767 94.6979,-210.518 101.389,-218.733 105.051,-212.767"/>
<text text-anchor="middle" x="164.5" y="-232.8" font-family="Times,serif" font-size="14.00">args</text>
</g>
<!-- arguments&#45;&gt;[] -->
<g id="edge7" class="edge"><title>arguments&#45;&gt;[]</title>
<path fill="none" stroke="#599fb6" d="M251.68,-262.781C258.002,-257.037 264.982,-250.406 271,-244 278.423,-236.099 286.045,-227.022 292.672,-218.762"/>
<polygon fill="#599fb6" stroke="#599fb6" points="295.471,-220.865 298.923,-210.849 289.978,-216.526 295.471,-220.865"/>
<text text-anchor="middle" x="306.5" y="-232.8" font-family="Times,serif" font-size="14.00">defaults</text>
</g>
<!-- arguments&#45;&gt;None1 -->
<g id="edge5" class="edge"><title>arguments&#45;&gt;None1</title>
<path fill="none" stroke="#c68100" d="M214.435,-262.951C207.862,-257.109 200.491,-250.374 194,-244 185.233,-235.39 175.944,-225.571 167.96,-216.894"/>
<polygon fill="#c68100" stroke="#c68100" points="170.372,-214.344 161.047,-209.314 165.2,-219.061 170.372,-214.344"/>
<text text-anchor="middle" x="211.5" y="-232.8" font-family="Times,serif" font-size="14.00">vararg</text>
</g>
<!-- arguments&#45;&gt;None2 -->
<g id="edge6" class="edge"><title>arguments&#45;&gt;None2</title>
<path fill="none" stroke="#c68100" d="M233,-261.698C233,-249.993 233,-234.286 233,-220.897"/>
<polygon fill="#c68100" stroke="#c68100" points="236.5,-220.776 233,-210.776 229.5,-220.777 236.5,-220.776"/>
<text text-anchor="middle" x="250" y="-232.8" font-family="Times,serif" font-size="14.00">kwarg</text>
</g>
<!-- BinOp -->
<g id="node13" class="node"><title>BinOp</title>
<ellipse fill="lightblue" stroke="#599fb6" cx="393" cy="-192.5" rx="36.2938" ry="18"/>
<text text-anchor="middle" x="393" y="-188.8" font-family="Ubuntu,Monospace" font-size="14.00">BinOp</text>
</g>
<!-- Return&#45;&gt;BinOp -->
<g id="edge9" class="edge"><title>Return&#45;&gt;BinOp</title>
<path fill="none" stroke="#599fb6" d="M371.334,-262.108C375.106,-250.163 380.241,-233.905 384.564,-220.213"/>
<polygon fill="#599fb6" stroke="#599fb6" points="388.003,-220.947 387.677,-210.357 381.328,-218.839 388.003,-220.947"/>
<text text-anchor="middle" x="397" y="-232.8" font-family="Times,serif" font-size="14.00">value</text>
</g>
<!-- BinOp&#45;&gt;Name2 -->
<g id="edge10" class="edge"><title>BinOp&#45;&gt;Name2</title>
<path fill="none" stroke="#599fb6" d="M377.96,-175.818C365.361,-162.681 347.205,-143.751 332.977,-128.915"/>
<polygon fill="#599fb6" stroke="#599fb6" points="335.393,-126.377 325.945,-121.583 330.341,-131.223 335.393,-126.377"/>
<text text-anchor="middle" x="366.5" y="-144.8" font-family="Times,serif" font-size="14.00">left</text>
</g>
<!-- Add -->
<g id="node15" class="node"><title>Add</title>
<ellipse fill="lightblue" stroke="#599fb6" cx="393" cy="-105" rx="27.8951" ry="18"/>
<text text-anchor="middle" x="393" y="-101.3" font-family="Ubuntu,Monospace" font-size="14.00">Add</text>
</g>
<!-- BinOp&#45;&gt;Add -->
<g id="edge13" class="edge"><title>BinOp&#45;&gt;Add</title>
<path fill="none" stroke="#599fb6" d="M393,-174.198C393,-162.493 393,-146.786 393,-133.397"/>
<polygon fill="#599fb6" stroke="#599fb6" points="396.5,-133.276 393,-123.276 389.5,-133.277 396.5,-133.276"/>
<text text-anchor="middle" x="400" y="-144.8" font-family="Times,serif" font-size="14.00">op</text>
</g>
<!-- Num -->
<g id="node16" class="node"><title>Num</title>
<ellipse fill="lightblue" stroke="#599fb6" cx="469" cy="-105" rx="30.5947" ry="18"/>
<text text-anchor="middle" x="469" y="-101.3" font-family="Ubuntu,Monospace" font-size="14.00">Num</text>
</g>
<!-- BinOp&#45;&gt;Num -->
<g id="edge14" class="edge"><title>BinOp&#45;&gt;Num</title>
<path fill="none" stroke="#599fb6" d="M406.94,-175.818C418.582,-162.72 435.344,-143.864 448.513,-129.048"/>
<polygon fill="#599fb6" stroke="#599fb6" points="451.377,-131.094 455.405,-121.295 446.145,-126.444 451.377,-131.094"/>
<text text-anchor="middle" x="451" y="-144.8" font-family="Times,serif" font-size="14.00">right</text>
</g>
<!-- Num&#45;&gt;1 -->
<g id="edge15" class="edge"><title>Num&#45;&gt;1</title>
<path fill="none" stroke="#c68100" d="M469,-86.799C469,-75.1626 469,-59.5479 469,-46.2368"/>
<polygon fill="#c68100" stroke="#c68100" points="472.5,-46.1754 469,-36.1754 465.5,-46.1755 472.5,-46.1754"/>
<text text-anchor="middle" x="472.5" y="-57.8" font-family="Times,serif" font-size="14.00">n</text>
</g>
</g>
</svg>
