<?xml version="1.0" encoding="UTF-8" standalone="no"?>
<!DOCTYPE svg PUBLIC "-//W3C//DTD SVG 1.1//EN"
 "http://www.w3.org/Graphics/SVG/1.1/DTD/svg11.dtd">
<!-- Generated by graphviz version 2.38.0 (20140413.2041)
 -->
<!-- Title: %3 Pages: 1 -->
<svg width="374pt" height="260pt"
 viewBox="0.00 0.00 374.39 260.00" xmlns="http://www.w3.org/2000/svg" xmlns:xlink="http://www.w3.org/1999/xlink">
<g id="graph0" class="graph" transform="scale(1 1) rotate(0) translate(4 256)">
<title>%3</title>
<polygon fill="white" stroke="none" points="-4,4 -4,-256 370.389,-256 370.389,4 -4,4"/>
<!-- [Name] -->
<g id="node1" class="node"><title>[Name]</title>
<ellipse fill="#ffd890" stroke="orange" cx="63.6943" cy="-90" rx="63.8893" ry="18"/>
<text text-anchor="middle" x="63.6943" y="-86.3" font-family="Ubuntu,Monospace" font-size="14.00">Name(id=&#39;v&#39;)</text>
</g>
<!-- Name2 -->
<g id="node2" class="node"><title>Name2</title>
<ellipse fill="#ffd890" stroke="orange" cx="84.6943" cy="-18" rx="63.8893" ry="18"/>
<text text-anchor="middle" x="84.6943" y="-14.3" font-family="Ubuntu,Monospace" font-size="14.00">Name(id=&#39;v&#39;)</text>
</g>
<!-- Num -->
<g id="node3" class="node"><title>Num</title>
<ellipse fill="#ffd890" stroke="orange" cx="302.694" cy="-18" rx="63.8893" ry="18"/>
<text text-anchor="middle" x="302.694" y="-14.3" font-family="Ubuntu,Monospace" font-size="14.00">Num(n=100)</text>
</g>
<!-- Lambda -->
<g id="node4" class="node"><title>Lambda</title>
<ellipse fill="lightblue" stroke="#599fb6" cx="130.694" cy="-234" rx="44.393" ry="18"/>
<text text-anchor="middle" x="130.694" y="-230.3" font-family="Ubuntu,Monospace" font-size="14.00">Lambda</text>
</g>
<!-- arguments -->
<g id="node5" class="node"><title>arguments</title>
<ellipse fill="lightblue" stroke="#599fb6" cx="71.6943" cy="-162" rx="55.7903" ry="18"/>
<text text-anchor="middle" x="71.6943" y="-158.3" font-family="Ubuntu,Monospace" font-size="14.00">arguments</text>
</g>
<!-- Lambda&#45;&gt;arguments -->
<g id="edge1" class="edge"><title>Lambda&#45;&gt;arguments</title>
<path fill="none" stroke="#599fb6" d="M117.01,-216.765C109.67,-208.056 100.475,-197.147 92.2896,-187.435"/>
<polygon fill="#599fb6" stroke="#599fb6" points="94.8349,-185.024 85.7139,-179.633 89.4825,-189.535 94.8349,-185.024"/>
</g>
<!-- Return -->
<g id="node6" class="node"><title>Return</title>
<ellipse fill="lightblue" stroke="#599fb6" cx="189.694" cy="-162" rx="40.0939" ry="18"/>
<text text-anchor="middle" x="189.694" y="-158.3" font-family="Ubuntu,Monospace" font-size="14.00">Return</text>
</g>
<!-- Lambda&#45;&gt;Return -->
<g id="edge3" class="edge"><title>Lambda&#45;&gt;Return</title>
<path fill="none" stroke="#599fb6" d="M144.378,-216.765C151.825,-207.93 161.18,-196.83 169.454,-187.014"/>
<polygon fill="#599fb6" stroke="#599fb6" points="172.316,-189.049 176.084,-179.147 166.964,-184.538 172.316,-189.049"/>
</g>
<!-- arguments&#45;&gt;[Name] -->
<g id="edge2" class="edge"><title>arguments&#45;&gt;[Name]</title>
<path fill="none" stroke="#c68100" d="M69.7168,-143.697C68.8352,-135.983 67.7758,-126.712 66.7929,-118.112"/>
<polygon fill="#c68100" stroke="#c68100" points="70.262,-117.642 65.6491,-108.104 63.3073,-118.437 70.262,-117.642"/>
</g>
<!-- Compare -->
<g id="node7" class="node"><title>Compare</title>
<ellipse fill="lightblue" stroke="#599fb6" cx="193.694" cy="-90" rx="48.9926" ry="18"/>
<text text-anchor="middle" x="193.694" y="-86.3" font-family="Ubuntu,Monospace" font-size="14.00">Compare</text>
</g>
<!-- Return&#45;&gt;Compare -->
<g id="edge4" class="edge"><title>Return&#45;&gt;Compare</title>
<path fill="none" stroke="#599fb6" d="M190.683,-143.697C191.124,-135.983 191.654,-126.712 192.145,-118.112"/>
<polygon fill="#599fb6" stroke="#599fb6" points="195.641,-118.288 192.717,-108.104 188.652,-117.888 195.641,-118.288"/>
</g>
<!-- Compare&#45;&gt;Name2 -->
<g id="edge5" class="edge"><title>Compare&#45;&gt;Name2</title>
<path fill="none" stroke="#c68100" d="M170.311,-73.9832C154.97,-64.1309 134.681,-51.1016 117.705,-40.1994"/>
<polygon fill="#c68100" stroke="#c68100" points="119.479,-37.179 109.173,-34.7203 115.696,-43.069 119.479,-37.179"/>
</g>
<!-- Compare&#45;&gt;Num -->
<g id="edge7" class="edge"><title>Compare&#45;&gt;Num</title>
<path fill="none" stroke="#c68100" d="M217.078,-73.9832C232.419,-64.1309 252.708,-51.1016 269.684,-40.1994"/>
<polygon fill="#c68100" stroke="#c68100" points="271.693,-43.069 278.216,-34.7203 267.91,-37.179 271.693,-43.069"/>
</g>
<!-- LtE -->
<g id="node8" class="node"><title>LtE</title>
<ellipse fill="lightblue" stroke="#599fb6" cx="193.694" cy="-18" rx="27" ry="18"/>
<text text-anchor="middle" x="193.694" y="-14.3" font-family="Ubuntu,Monospace" font-size="14.00">LtE</text>
</g>
<!-- Compare&#45;&gt;LtE -->
<g id="edge6" class="edge"><title>Compare&#45;&gt;LtE</title>
<path fill="none" stroke="#599fb6" d="M193.694,-71.6966C193.694,-63.9827 193.694,-54.7125 193.694,-46.1124"/>
<polygon fill="#599fb6" stroke="#599fb6" points="197.194,-46.1043 193.694,-36.1043 190.194,-46.1044 197.194,-46.1043"/>
</g>
</g>
</svg>
