<?xml version="1.0" encoding="UTF-8" standalone="no"?>
<!DOCTYPE svg PUBLIC "-//W3C//DTD SVG 1.1//EN"
 "http://www.w3.org/Graphics/SVG/1.1/DTD/svg11.dtd">
<!-- Generated by graphviz version 2.38.0 (20140413.2041)
 -->
<!-- Title: %3 Pages: 1 -->
<svg width="442pt" height="44pt"
 viewBox="0.00 0.00 441.68 44.00" xmlns="http://www.w3.org/2000/svg" xmlns:xlink="http://www.w3.org/1999/xlink">
<g id="graph0" class="graph" transform="scale(1 1) rotate(0) translate(4 40)">
<title>%3</title>
<polygon fill="white" stroke="none" points="-4,4 -4,-40 437.676,-40 437.676,4 -4,4"/>
<!-- Код -->
<g id="node1" class="node"><title>Код</title>
<ellipse fill="none" stroke="black" cx="27" cy="-18" rx="27" ry="18"/>
<text text-anchor="middle" x="27" y="-14.3" font-family="Times,serif" font-size="14.00">Код</text>
</g>
<!-- AST -->
<g id="node2" class="node"><title>AST</title>
<ellipse fill="none" stroke="black" cx="117.298" cy="-18" rx="27.0966" ry="18"/>
<text text-anchor="middle" x="117.298" y="-14.3" font-family="Times,serif" font-size="14.00">AST</text>
</g>
<!-- Код&#45;&gt;AST -->
<g id="edge1" class="edge"><title>Код&#45;&gt;AST</title>
<path fill="none" stroke="black" d="M54.0146,-18C62.0434,-18 71.0406,-18 79.6463,-18"/>
<polygon fill="black" stroke="black" points="79.8578,-21.5001 89.8577,-18 79.8577,-14.5001 79.8578,-21.5001"/>
</g>
<!-- Новый AST -->
<g id="node3" class="node"><title>Новый AST</title>
<ellipse fill="none" stroke="black" cx="236.49" cy="-18" rx="55.7903" ry="18"/>
<text text-anchor="middle" x="236.49" y="-14.3" font-family="Times,serif" font-size="14.00">Новый AST</text>
</g>
<!-- AST&#45;&gt;Новый AST -->
<g id="edge2" class="edge"><title>AST&#45;&gt;Новый AST</title>
<path fill="none" stroke="black" d="M144.598,-18C152.345,-18 161.187,-18 170.244,-18"/>
<polygon fill="black" stroke="black" points="170.514,-21.5001 180.514,-18 170.514,-14.5001 170.514,-21.5001"/>
</g>
<!-- Новый код -->
<g id="node4" class="node"><title>Новый код</title>
<ellipse fill="none" stroke="black" cx="381.031" cy="-18" rx="52.7911" ry="18"/>
<text text-anchor="middle" x="381.031" y="-14.3" font-family="Times,serif" font-size="14.00">Новый код</text>
</g>
<!-- Новый AST&#45;&gt;Новый код -->
<g id="edge3" class="edge"><title>Новый AST&#45;&gt;Новый код</title>
<path fill="none" stroke="black" d="M292.6,-18C300.954,-18 309.622,-18 318.109,-18"/>
<polygon fill="black" stroke="black" points="318.339,-21.5001 328.339,-18 318.339,-14.5001 318.339,-21.5001"/>
</g>
</g>
</svg>
