<?xml version="1.0" encoding="UTF-8" standalone="no"?>
<!DOCTYPE svg PUBLIC "-//W3C//DTD SVG 1.1//EN"
 "http://www.w3.org/Graphics/SVG/1.1/DTD/svg11.dtd">
<!-- Generated by graphviz version 2.38.0 (20140413.2041)
 -->
<!-- Title: %3 Pages: 1 -->
<svg width="277pt" height="260pt"
 viewBox="0.00 0.00 276.90 260.00" xmlns="http://www.w3.org/2000/svg" xmlns:xlink="http://www.w3.org/1999/xlink">
<g id="graph0" class="graph" transform="scale(1 1) rotate(0) translate(4 256)">
<title>%3</title>
<polygon fill="white" stroke="none" points="-4,4 -4,-256 272.895,-256 272.895,4 -4,4"/>
<!-- [Name] -->
<g id="node1" class="node"><title>[Name]</title>
<ellipse fill="#ffd890" stroke="orange" cx="55.895" cy="-90" rx="27" ry="18"/>
<text text-anchor="middle" x="55.895" y="-86.3" font-family="Ubuntu,Monospace" font-size="14.00">v</text>
</g>
<!-- Name2 -->
<g id="node2" class="node"><title>Name2</title>
<ellipse fill="#ffd890" stroke="orange" cx="97.895" cy="-18" rx="27" ry="18"/>
<text text-anchor="middle" x="97.895" y="-14.3" font-family="Ubuntu,Monospace" font-size="14.00">v</text>
</g>
<!-- Num -->
<g id="node3" class="node"><title>Num</title>
<ellipse fill="#ffd890" stroke="orange" cx="241.895" cy="-18" rx="27" ry="18"/>
<text text-anchor="middle" x="241.895" y="-14.3" font-family="Ubuntu,Monospace" font-size="14.00">100</text>
</g>
<!-- LtE -->
<g id="node4" class="node"><title>LtE</title>
<ellipse fill="lightblue" stroke="#599fb6" cx="169.895" cy="-18" rx="27" ry="18"/>
<text text-anchor="middle" x="169.895" y="-14.3" font-family="Ubuntu,Monospace" font-size="14.00">&lt;=</text>
</g>
<!-- Compare -->
<g id="node5" class="node"><title>Compare</title>
<ellipse fill="lightblue" stroke="#599fb6" cx="169.895" cy="-90" rx="51.9908" ry="18"/>
<text text-anchor="middle" x="169.895" y="-86.3" font-family="Ubuntu,Monospace" font-size="14.00">(v &lt;= 100)</text>
</g>
<!-- Compare&#45;&gt;Name2 -->
<g id="edge5" class="edge"><title>Compare&#45;&gt;Name2</title>
<path fill="none" stroke="#c68100" d="M153.196,-72.7646C143.301,-63.1447 130.644,-50.8396 119.937,-40.4296"/>
<polygon fill="#c68100" stroke="#c68100" points="122.162,-37.7112 112.552,-33.2499 117.282,-42.7302 122.162,-37.7112"/>
</g>
<!-- Compare&#45;&gt;Num -->
<g id="edge7" class="edge"><title>Compare&#45;&gt;Num</title>
<path fill="none" stroke="#c68100" d="M186.594,-72.7646C196.489,-63.1447 209.146,-50.8396 219.853,-40.4296"/>
<polygon fill="#c68100" stroke="#c68100" points="222.508,-42.7302 227.238,-33.2499 217.628,-37.7112 222.508,-42.7302"/>
</g>
<!-- Compare&#45;&gt;LtE -->
<g id="edge6" class="edge"><title>Compare&#45;&gt;LtE</title>
<path fill="none" stroke="#599fb6" d="M169.895,-71.6966C169.895,-63.9827 169.895,-54.7125 169.895,-46.1124"/>
<polygon fill="#599fb6" stroke="#599fb6" points="173.395,-46.1043 169.895,-36.1043 166.395,-46.1044 173.395,-46.1043"/>
</g>
<!-- Lambda -->
<g id="node6" class="node"><title>Lambda</title>
<ellipse fill="lightblue" stroke="#599fb6" cx="112.895" cy="-234" rx="44.393" ry="18"/>
<text text-anchor="middle" x="112.895" y="-230.3" font-family="Ubuntu,Monospace" font-size="14.00">Lambda</text>
</g>
<!-- arguments -->
<g id="node7" class="node"><title>arguments</title>
<ellipse fill="lightblue" stroke="#599fb6" cx="55.895" cy="-162" rx="55.7903" ry="18"/>
<text text-anchor="middle" x="55.895" y="-158.3" font-family="Ubuntu,Monospace" font-size="14.00">arguments</text>
</g>
<!-- Lambda&#45;&gt;arguments -->
<g id="edge1" class="edge"><title>Lambda&#45;&gt;arguments</title>
<path fill="none" stroke="#599fb6" d="M99.6748,-216.765C92.5835,-208.056 83.7002,-197.147 75.7921,-187.435"/>
<polygon fill="#599fb6" stroke="#599fb6" points="78.4677,-185.178 69.4394,-179.633 73.0396,-189.598 78.4677,-185.178"/>
</g>
<!-- Return -->
<g id="node8" class="node"><title>Return</title>
<ellipse fill="lightblue" stroke="#599fb6" cx="169.895" cy="-162" rx="40.0939" ry="18"/>
<text text-anchor="middle" x="169.895" y="-158.3" font-family="Ubuntu,Monospace" font-size="14.00">Return</text>
</g>
<!-- Lambda&#45;&gt;Return -->
<g id="edge3" class="edge"><title>Lambda&#45;&gt;Return</title>
<path fill="none" stroke="#599fb6" d="M126.115,-216.765C133.309,-207.93 142.348,-196.83 150.341,-187.014"/>
<polygon fill="#599fb6" stroke="#599fb6" points="153.146,-189.112 156.747,-179.147 147.718,-184.692 153.146,-189.112"/>
</g>
<!-- arguments&#45;&gt;[Name] -->
<g id="edge2" class="edge"><title>arguments&#45;&gt;[Name]</title>
<path fill="none" stroke="#c68100" d="M55.895,-143.697C55.895,-135.983 55.895,-126.712 55.895,-118.112"/>
<polygon fill="#c68100" stroke="#c68100" points="59.3951,-118.104 55.895,-108.104 52.3951,-118.104 59.3951,-118.104"/>
</g>
<!-- Return&#45;&gt;Compare -->
<g id="edge4" class="edge"><title>Return&#45;&gt;Compare</title>
<path fill="none" stroke="#599fb6" d="M169.895,-143.697C169.895,-135.983 169.895,-126.712 169.895,-118.112"/>
<polygon fill="#599fb6" stroke="#599fb6" points="173.395,-118.104 169.895,-108.104 166.395,-118.104 173.395,-118.104"/>
</g>
</g>
</svg>
